<svg width="112" height="112" viewBox="0 0 112 112" fill="none" xmlns="http://www.w3.org/2000/svg">
<path opacity="0.4" d="M83.9998 64.1667C83.9998 84.14 67.8065 100.333 47.8332 100.333C27.8598 100.333 11.6665 84.14 11.6665 64.1667C11.6665 44.1933 27.8598 28 47.8332 28C56.5598 28 64.5398 31.08 70.7932 36.26H70.8398C72.6598 37.7533 74.2932 39.3867 75.7398 41.2067C80.9198 47.46 83.9998 55.44 83.9998 64.1667Z" fill="#12B76A"/>
<path d="M103.833 11.6667V42.0001C103.833 43.9134 102.247 45.5001 100.333 45.5001C98.42 45.5001 96.8333 43.9134 96.8333 42.0001V20.1134L75.74 41.2067C74.2933 39.3867 72.66 37.7534 70.84 36.2601L91.8867 15.1667H70C68.0867 15.1667 66.5 13.5801 66.5 11.6667C66.5 9.75341 68.0867 8.16675 70 8.16675H100.333C100.8 8.16675 101.22 8.26008 101.687 8.44675C102.527 8.77341 103.227 9.47341 103.553 10.3134C103.74 10.7801 103.833 11.2001 103.833 11.6667Z" fill="#12B76A"/>
</svg>
