<svg width="112" height="112" viewBox="0 0 112 112" fill="none" xmlns="http://www.w3.org/2000/svg">
<path opacity="0.4" d="M88.6668 42.0002C88.6668 58.8935 75.8802 72.7535 59.5002 74.4802C58.3335 74.6202 57.1668 74.6668 56.0002 74.6668C54.8335 74.6668 53.6668 74.6202 52.5002 74.4802C36.1202 72.7535 23.3335 58.8935 23.3335 42.0002C23.3335 23.9402 37.9402 9.3335 56.0002 9.3335C74.0602 9.3335 88.6668 23.9402 88.6668 42.0002Z" fill="#9E77ED"/>
<path d="M73.5 88.6666C73.5 90.58 71.9133 92.1666 70 92.1666H59.5V102.667C59.5 104.58 57.9133 106.167 56 106.167C54.0867 106.167 52.5 104.58 52.5 102.667V92.1666H42C40.0867 92.1666 38.5 90.58 38.5 88.6666C38.5 86.7533 40.0867 85.1666 42 85.1666H52.5V74.48C53.6667 74.62 54.8333 74.6666 56 74.6666C57.1667 74.6666 58.3333 74.62 59.5 74.48V85.1666H70C71.9133 85.1666 73.5 86.7533 73.5 88.6666Z" fill="#9E77ED"/>
</svg>
